<?xml version="1.0" encoding="UTF-8"?>
<svg id="Ebene_1" data-name="Ebene 1" xmlns="http://www.w3.org/2000/svg" viewBox="0 0 807.39 224.01">
  <defs>
    <style>
      .cls-1 {
        fill: #fff;
      }
    </style>
  </defs>
  <g>
    <path class="cls-1" d="M564.27,146.19l-11.82-26.76-8.47-.05v26.52s-11.41-.03-11.41-.03v-66.88s24.92.18,24.92.18c11.29,1.23,19.01,9.7,18.31,20.94-.49,7.9-4.76,14.63-12.21,17.62l12.97,28.09-12.3.36ZM564.16,97.95c-.52-4.34-2.71-6.51-6.2-8.67l-13.95-.27-.03,20.21,9.74.05c3.01.01,6.14-.94,8.06-3.06,1.81-2.01,2.74-5.24,2.38-8.25Z"/>
    <polygon class="cls-1" points="756.33 145.93 744.87 146.03 744.81 116.51 726.8 116.51 726.74 146.01 715.29 146.01 715.29 79.11 726.7 78.91 726.8 106.1 744.81 106.15 744.87 79.03 756.32 79.1 756.33 145.93"/>
    <path class="cls-1" d="M500.24,119.73l-11.39-.14.02-9.86h22.92s-.07,19.05-.07,19.05c-.02,4.46-1.89,8.67-4.91,11.54-1.98,1.88-3.76,3.74-6.33,4.72-6.24,2.38-13,2.56-19.25.23-6.97-2.6-11.97-8.83-11.98-16.52l-.04-32.14c0-7.96,5.05-14.7,12.48-17.17,5.84-1.94,12.08-1.95,17.84.13,7.73,2.78,12.61,10.04,12.13,18.25l-11.21.02c-.49-3.02-1.11-5.68-2.8-7.29-2.16-2.05-4.65-2.5-7.51-2.47-5.47.06-9.53,3.54-9.51,9.15l.1,31.39c.02,4.67,3.8,7.83,8.11,8.19,3.76.32,8.44-.49,10.2-4.15s1.07-8.12,1.19-12.94Z"/>
    <path class="cls-1" d="M219.53,145.3c-7.19,2.38-15.08,2.24-21.94-.98-6.54-3.07-10.62-9.63-10.28-16.92l10.89.08c.59,1.78,1.21,5.11,2.58,6.26,4.39,3.71,10.54,4.15,15.39,1.6,3.68-1.93,4.77-6.08,4.24-9.83-1.17-8.29-10.9-7.82-19.41-10.98-8.53-3.17-13.31-11.31-12.32-20.16.75-6.68,4.65-12.17,11.05-14.6,6.04-2.3,12.94-2.35,19.01-.02,6.95,2.67,11.5,8.81,11.24,16.7l-10.95.06c-.44-6.1-4.96-8.58-10.09-8.58-4.53,0-8.36,2.57-9.04,6.76-.72,4.48,1.73,8.42,6.35,9.64l10.43,2.74c9.44,2.48,15.41,10.85,15.15,20.55-.13,4.88-1.46,9.47-5,12.76-2.19,2.03-4.39,3.95-7.31,4.92Z"/>
    <path class="cls-1" d="M325.55,129.8l-17.88-.08-3.75,16.31-11.69-.06,16.85-66.88,14.84-.13,17.01,67.01-11.72.08-3.65-16.24ZM323.33,120.25l-6.45-29.37c.12-.51.37-1.68.02-1.68-.25,0-.96-.01-.91.22s.28,1.4.17,1.9l-6.33,28.92,13.49.02Z"/>
    <path class="cls-1" d="M622.72,129.8l-17.88-.08-3.75,16.31-11.69-.06,16.85-66.88,14.84-.13,17.01,67.01-11.72.08-3.65-16.24ZM620.5,120.25l-6.45-29.37c.12-.51.37-1.68.02-1.68-.25,0-.96,0-.91.22s.28,1.4.17,1.91l-6.33,28.91,13.49.02Z"/>
    <polygon class="cls-1" points="446 116.21 420.28 116.27 420.14 135.95 449.21 135.93 449.22 146.02 408.95 146.03 408.94 78.98 449.22 78.96 449.22 89.02 420.14 88.98 420.14 106.58 445.93 106.52 446 116.21"/>
    <path class="cls-1" d="M680.99,119.84c-5.33.71-10.02.37-15.6.45l-.08,25.72h-11.44s0-66.99,0-66.99c8.95-.02,17.19-.3,25.6.2,11.13.66,19.29,9.35,18.94,20.26.43,10.36-6.79,18.93-17.42,20.36ZM682.93,90.91c-1.26-1.11-4.55-1.85-6.27-1.86l-11.29-.03-.02,21.11c5.22-.09,10.31.63,15.17-.64,3.73-.97,5.85-5.32,6.15-8.12.43-4.05-.37-7.52-3.74-10.47Z"/>
    <polygon class="cls-1" points="271.4 145.93 259.8 146.01 259.8 89.39 242.27 89.26 242.33 78.96 288.86 78.96 289.01 89.23 271.41 89.35 271.4 145.93"/>
    <polygon class="cls-1" points="374.38 145.93 362.78 146.01 362.78 89.39 345.24 89.26 345.3 78.96 391.84 78.96 391.98 89.23 374.39 89.35 374.38 145.93"/>
  </g>
  <g>
    <path class="cls-1" d="M68.74,90.96h-.22c-8.45-.38-14.8-7.24-14.46-15.64.33-8.19,7.27-14.63,15.49-14.32,8.13.29,14.61,7.18,14.45,15.34v.25s3.21.07,3.21.07v-.25c.16-4.83-1.6-9.44-4.94-12.96-3.38-3.57-7.93-5.59-12.81-5.71-10.04-.25-18.39,7.72-18.66,17.73-.13,4.87,1.65,9.51,5.01,13.05,3.33,3.52,7.84,5.52,12.68,5.65h.24s.02-.23.02-.23c.07-1.07.07-1.92.01-2.76l-.02-.22Z"/>
    <path class="cls-1" d="M149.58,76.94c0-6.97-5.67-12.63-12.63-12.63s-12.63,5.67-12.63,12.63c0,1.58.29,3.12.86,4.58l-21.32,22.07c-.18.16-.63.58-1.12,1.18-.53-.68-1.04-1.15-1.19-1.27l-21.23-21.79c.83-1.72,1.26-3.57,1.26-5.49,0-6.97-5.67-12.63-12.63-12.63s-12.63,5.67-12.63,12.63,5.67,12.63,12.63,12.63c1.15,0,2.29-.16,3.4-.47l20.29,21.02.08.07c.33.29,1.32,1.32,1.51,2.19.27,1.25.26,2.93.25,4.28v24.66c-.27.23-.52.45-.74.68-4.93,4.93-4.93,12.94,0,17.87,2.38,2.38,5.56,3.7,8.93,3.7s6.55-1.31,8.93-3.7c4.93-4.93,4.93-12.94,0-17.87-.2-.2-.43-.41-.68-.63v-24.95c-.01-1.35-.02-3.02.25-4.28.19-.87,1.17-1.89,1.52-2.19l19.64-20.52c1.48.58,3.03.88,4.62.88,6.97,0,12.63-5.67,12.63-12.63ZM107.62,110.64c-.36,1.65-.35,3.55-.34,5.07v22.74c-.89-.35-1.83-.6-2.78-.74v-25.16c0-.34,0-.69,0-1.04,0-.84.04-2.06.25-3.03.19-.87,1.17-1.89,1.5-2.18l20.79-21.51c.6.75,1.28,1.44,2.04,2.04l-18.84,19.7c-.5.45-2.19,2.07-2.63,4.12ZM109.24,143.63c1.75,1.75,2.72,4.09,2.72,6.57s-.97,4.82-2.72,6.57c-1.75,1.75-4.09,2.72-6.57,2.72s-4.82-.97-6.57-2.72-2.72-4.09-2.72-6.57.97-4.82,2.72-6.57c1.81-1.81,4.19-2.72,6.57-2.72s4.76.91,6.57,2.72ZM78.24,76.21c0,5.13-4.17,9.3-9.3,9.3s-9.3-4.17-9.3-9.3,4.17-9.3,9.3-9.3,9.3,4.17,9.3,9.3ZM100.88,137.7c-.96.14-1.9.38-2.79.73v-22.47c.01-1.53.02-3.42-.33-5.07-.46-2.1-2.27-3.8-2.62-4.1l-19.3-19.99c.88-.57,1.68-1.26,2.4-2.03l20.82,21.37.06.06c.33.29,1.32,1.32,1.51,2.19.21.98.25,2.18.25,3.12,0,.37,0,.73,0,1.07v25.14ZM136.94,86.23c-5.13,0-9.3-4.17-9.3-9.3s4.17-9.3,9.3-9.3,9.3,4.17,9.3,9.3-4.17,9.3-9.3,9.3Z"/>
    <path class="cls-1" d="M137.69,58.79c-4.88-.13-9.51,1.65-13.05,5.01-3.52,3.33-5.52,7.84-5.65,12.68v.24s.23.02.23.02c1.07.07,1.92.07,2.76.01l.22-.02v-.22c.38-8.45,7.25-14.8,15.64-14.46,8.19.33,14.61,7.28,14.32,15.49-.29,8.13-7.19,14.6-15.34,14.45h-.25s-.07,3.21-.07,3.21h.25c.19.01.38.02.57.02,4.63,0,9.01-1.75,12.4-4.96,3.57-3.38,5.59-7.93,5.71-12.81.24-10.02-7.72-18.39-17.73-18.66Z"/>
    <path class="cls-1" d="M115.52,137.65l-.18.16c-.81.71-1.41,1.31-1.96,1.94l-.15.17.15.16c5.71,6.23,5.35,15.58-.83,21.27-6.03,5.56-15.48,5.18-21.08-.83-5.54-5.96-5.26-15.41.63-21.07l.18-.17-2.22-2.32-.18.17c-3.52,3.31-5.54,7.81-5.67,12.67-.13,4.91,1.65,9.56,5.02,13.1,3.58,3.75,8.39,5.64,13.21,5.64,4.5,0,9.01-1.65,12.52-4.98,3.54-3.35,5.56-7.89,5.69-12.77.13-4.84-1.64-9.45-4.97-12.96l-.17-.17Z"/>
  </g>
</svg>