<?xml version="1.0" encoding="UTF-8"?>
<svg id="Ebene_1" data-name="Ebene 1" xmlns="http://www.w3.org/2000/svg" viewBox="0 0 204.78 224.01">
  <defs>
    <style>
      .cls-1 {
        fill: #fff;
      }
    </style>
  </defs>
  <path class="cls-1" d="M68.02,89.83h-.22c-8.45-.38-14.8-7.24-14.46-15.64.33-8.19,7.27-14.63,15.49-14.32,8.13.29,14.61,7.18,14.45,15.34v.25s3.21.07,3.21.07v-.25c.16-4.83-1.6-9.44-4.94-12.96-3.38-3.57-7.93-5.59-12.81-5.71-10.04-.25-18.39,7.72-18.66,17.73-.13,4.87,1.65,9.51,5.01,13.05,3.33,3.52,7.84,5.52,12.68,5.65h.24s.02-.23.02-.23c.07-1.07.07-1.92.01-2.76l-.02-.22Z"/>
  <path class="cls-1" d="M148.86,75.81c0-6.97-5.67-12.63-12.63-12.63s-12.63,5.67-12.63,12.63c0,1.58.29,3.12.86,4.58l-21.32,22.07c-.18.16-.63.58-1.12,1.18-.53-.68-1.04-1.15-1.19-1.27l-21.23-21.79c.83-1.72,1.26-3.57,1.26-5.49,0-6.97-5.67-12.63-12.63-12.63s-12.63,5.67-12.63,12.63,5.67,12.63,12.63,12.63c1.15,0,2.29-.16,3.4-.47l20.29,21.02.08.07c.33.29,1.32,1.32,1.51,2.19.27,1.25.26,2.93.25,4.28v24.66c-.27.23-.52.45-.74.68-4.93,4.93-4.93,12.94,0,17.87,2.38,2.38,5.56,3.7,8.93,3.7s6.55-1.31,8.93-3.7c4.93-4.93,4.93-12.94,0-17.87-.2-.2-.43-.41-.68-.63v-24.95c-.01-1.35-.02-3.02.25-4.28.19-.87,1.17-1.89,1.52-2.19l19.64-20.52c1.48.58,3.03.88,4.62.88,6.97,0,12.63-5.67,12.63-12.63ZM106.91,109.51c-.36,1.65-.35,3.55-.34,5.07v22.74c-.89-.35-1.83-.6-2.78-.74v-25.16c0-.34,0-.69,0-1.04,0-.84.04-2.06.25-3.03.19-.87,1.17-1.89,1.5-2.18l20.79-21.51c.6.75,1.28,1.44,2.04,2.04l-18.84,19.7c-.5.45-2.19,2.07-2.63,4.12ZM108.52,142.5c1.75,1.75,2.72,4.09,2.72,6.57s-.97,4.82-2.72,6.57c-1.75,1.75-4.09,2.72-6.57,2.72s-4.82-.97-6.57-2.72-2.72-4.09-2.72-6.57.97-4.82,2.72-6.57c1.81-1.81,4.19-2.72,6.57-2.72s4.76.91,6.57,2.72ZM77.52,75.08c0,5.13-4.17,9.3-9.3,9.3s-9.3-4.17-9.3-9.3,4.17-9.3,9.3-9.3,9.3,4.17,9.3,9.3ZM100.17,136.57c-.96.14-1.9.38-2.79.73v-22.47c.01-1.53.02-3.42-.33-5.07-.46-2.1-2.27-3.8-2.62-4.1l-19.3-19.99c.88-.57,1.68-1.26,2.4-2.03l20.82,21.37.06.06c.33.29,1.32,1.32,1.51,2.19.21.98.25,2.18.25,3.12,0,.37,0,.73,0,1.07v25.14ZM136.23,85.1c-5.13,0-9.3-4.17-9.3-9.3s4.17-9.3,9.3-9.3,9.3,4.17,9.3,9.3-4.17,9.3-9.3,9.3Z"/>
  <path class="cls-1" d="M136.97,57.66c-4.88-.13-9.51,1.65-13.05,5.01-3.52,3.33-5.52,7.84-5.65,12.68v.24s.23.02.23.02c1.07.07,1.92.07,2.76.01l.22-.02v-.22c.38-8.45,7.25-14.8,15.64-14.46,8.19.33,14.61,7.28,14.32,15.49-.29,8.13-7.19,14.6-15.34,14.45h-.25s-.07,3.21-.07,3.21h.25c.19.01.38.02.57.02,4.63,0,9.01-1.75,12.4-4.96,3.57-3.38,5.59-7.93,5.71-12.81.24-10.02-7.72-18.39-17.73-18.66Z"/>
  <path class="cls-1" d="M114.8,136.52l-.18.16c-.81.71-1.41,1.31-1.96,1.94l-.15.17.15.16c5.71,6.23,5.35,15.58-.83,21.27-6.03,5.56-15.48,5.18-21.08-.83-5.54-5.96-5.26-15.41.63-21.07l.18-.17-2.22-2.32-.18.17c-3.52,3.31-5.54,7.81-5.67,12.67-.13,4.91,1.65,9.56,5.02,13.1,3.58,3.75,8.39,5.64,13.21,5.64,4.5,0,9.01-1.65,12.52-4.98,3.54-3.35,5.56-7.89,5.69-12.77.13-4.84-1.64-9.45-4.97-12.96l-.17-.17Z"/>
</svg>